<?xml version="1.0" encoding="UTF-8" standalone="no"?>
<!-- Generator: Adobe Illustrator 15.0.0, SVG Export Plug-In . SVG Version: 6.00 Build 0)  -->

<svg
   xmlns:dc="http://purl.org/dc/elements/1.1/"
   xmlns:cc="http://creativecommons.org/ns#"
   xmlns:rdf="http://www.w3.org/1999/02/22-rdf-syntax-ns#"
   xmlns:svg="http://www.w3.org/2000/svg"
   xmlns="http://www.w3.org/2000/svg"
   xmlns:sodipodi="http://sodipodi.sourceforge.net/DTD/sodipodi-0.dtd"
   xmlns:inkscape="http://www.inkscape.org/namespaces/inkscape"
   version="1.1"
   id="Ebene_1"
   x="0px"
   y="0px"
   width="226.77px"
   height="85.04px"
   viewBox="0 0 226.77 85.04"
   enable-background="new 0 0 226.77 85.04"
   xml:space="preserve"
   sodipodi:docname="logo.svg"
   inkscape:version="0.92.1 r15371"><metadata
     id="metadata25"><rdf:RDF><cc:Work
         rdf:about=""><dc:format>image/svg+xml</dc:format><dc:type
           rdf:resource="http://purl.org/dc/dcmitype/StillImage" /><dc:title></dc:title></cc:Work></rdf:RDF></metadata><defs
     id="defs23" /><sodipodi:namedview
     pagecolor="#ffffff"
     bordercolor="#666666"
     borderopacity="1"
     objecttolerance="10"
     gridtolerance="10"
     guidetolerance="10"
     inkscape:pageopacity="0"
     inkscape:pageshadow="2"
     inkscape:window-width="1362"
     inkscape:window-height="729"
     id="namedview21"
     showgrid="false"
     inkscape:zoom="1.7198042"
     inkscape:cx="108.69549"
     inkscape:cy="76.979839"
     inkscape:window-x="0"
     inkscape:window-y="37"
     inkscape:window-maximized="0"
     inkscape:current-layer="g18" /><path
     fill="#676D72"
     d="M196.518,25.708c0-2.885-1.59-4.75-4.049-4.75c-1.447,0-2.553,0.163-3.445,0.511  c-0.215-0.025-0.44-0.055-0.674-0.086c-0.727-0.096-1.548-0.205-2.342-0.205c-0.844,0-1.828,0-2.663,0.478  c-0.761-0.593-1.851-0.934-3.101-0.934c-2.281,0-3.787,0-5.491,0.53c-1.29,0.4-2.255,1.495-2.717,3.082  c-0.438,1.506-0.397,3.604,0.528,4.699c0.588,0.693,1.689,1.307,3.353,1.861c-0.28,0.278-0.65,0.599-1.103,0.916  c-1.591,1.114-1.869,2.649-2.031,4.257c-0.213,2.105,0.128,3.91,0.959,5.08c0.402,0.566,0.914,1.072,1.391,1.526  c-0.039,0-0.08,0-0.12,0c-2.231,0-5.372,1.63-5.372,5.252c0,2.065,0.77,3.744,1.449,5.224c0.584,1.271,1.088,2.369,1.088,3.545  c0,1.307-0.971,4.822-1.386,6.322c-0.074,0.27-0.136,0.496-0.181,0.662l-0.362,1.361h13.427l-0.339-1.348  c-0.544-2.164-1.472-6.871-1.526-7.252c-0.048-0.362-0.246-1.608-0.77-2.445c-0.33-0.527-0.849-0.992-1.398-1.484  c-0.158-0.143-0.322-0.289-0.484-0.439c2.555-0.203,4.604-1.734,5.359-4.004c0.694-2.09,0.305-4.293-1.191-6.734  c-0.773-1.262-1.186-2.55-0.678-4.732c0.039-0.17,0.15-0.504,0.267-0.859c0.265-0.807,0.614-1.871,0.819-2.955  c0.654,0.27,1.41,0.411,2.252,0.411c0.162,0,0.355,0.004,0.542,0.008c0.146,0.003,0.275,0.005,0.394,0.006  c0.432,1.092,0.865,2.039,0.896,2.106l0.286,0.621v2.916h5.447v-3.001l0.256-0.462C195.606,32.144,196.518,28.886,196.518,25.708z   M174.217,27.635c-0.23-0.272-0.469-1.438-0.103-2.695c0.146-0.502,0.507-1.38,1.28-1.621c1.391-0.432,2.693-0.432,4.85-0.432  c0.768,0,1.336,0.178,1.677,0.406c-0.579,1.055-0.942,2.357-1.017,3.692c-0.056,1.001,0.055,1.951,0.316,2.801  c-1.848-0.204-3.242-0.539-3.367-0.57C175.09,28.47,174.371,27.817,174.217,27.635z M176.056,33.583  c0.44-0.308,1.546-1.137,2.167-2.071c0.786,0.157,2.02,0.37,3.447,0.493c-0.156,1.068-0.55,2.265-0.812,3.062  c-0.144,0.437-0.257,0.781-0.317,1.044c-0.049,0.208-0.09,0.411-0.126,0.612c-1.671,0.265-3.823,0.156-5.457-0.645  C175.102,34.786,175.314,34.101,176.056,33.583z M173.076,62.873c0.52-1.91,0.984-3.76,1.174-5.098h5.608  c0.247,1.273,0.686,3.424,1.063,5.098H173.076z M179.206,55.141c0.072,0.116,0.142,0.281,0.204,0.47h-5.161  c-0.201-1.204-0.702-2.298-1.191-3.364c-0.645-1.403-1.253-2.729-1.253-4.321c0-2.521,2.376-3.089,3.208-3.089  c0.716,0,1.362,0.002,1.812,0.004c0.466,1.189,0.677,3.121-1.449,5.036l0.036,0.04h-0.008l0.576,1.476  c0.449,1.147,1.389,1.989,2.219,2.731C178.612,54.492,179.039,54.874,179.206,55.141z M182.463,47.385  c-0.484,1.46-1.799,2.406-3.514,2.531c-0.296,0.021-0.551,0.03-0.772,0.033c0.747-1.102,1.13-2.307,1.122-3.558  c-0.012-1.584-0.638-2.842-1.01-3.451l-0.005,0.003c-0.335-0.586-0.889-1.111-1.469-1.659c-0.479-0.453-0.975-0.921-1.309-1.392  c-0.253-0.356-0.433-0.866-0.532-1.475c1.206,0.417,2.521,0.596,3.777,0.596c0.523,0,1.037-0.031,1.527-0.089  c0.09,1.231,0.482,2.367,1.201,3.539C182.639,44.353,182.951,45.916,182.463,47.385z M185.986,31.033  c-0.955,0-1.666-0.236-2.113-0.702l0.008-0.006c-1.187-1.53-0.996-4.29-0.064-5.99l0.345-0.54c0.251-0.391,0.66-0.454,1.847-0.454  c0.264,0,0.535,0.015,0.813,0.04c-1.365,2.383-1.019,6.04-0.687,7.478c0.014,0.057,0.027,0.115,0.043,0.175  C186.113,31.034,186.048,31.033,185.986,31.033z M189.604,23.573l0.032-0.015c0.647-0.297,1.547-0.436,2.832-0.436  c1.558,0,1.885,1.406,1.885,2.585c0,2.628-0.719,5.343-2.141,8.076h-2.709c-0.423-0.972-1.053-2.514-1.261-3.412  C187.809,28.488,187.758,24.442,189.604,23.573z M190.268,36.691v-0.742h1.119v0.742H190.268z"
     id="path2"
     style="fill:#ffffff;fill-opacity:1" /><path
     fill="#676D72"
     d="M55.525,58.705c-3.512,0-6.768-2.996-6.768-6.768c0-1.912,0.775-3.668,2.067-4.908  c1.239-1.189,2.842-1.859,4.7-1.859c3.721,0,6.769,3.047,6.769,6.768C62.294,55.657,59.299,58.705,55.525,58.705L55.525,58.705z   M47.984,42.638c0.826-0.775,1.549-1.757,2.014-2.79c0.466-1.033,0.723-2.273,0.723-3.513v-3.204c0-1.55-0.36-3.048-1.135-4.288  c-0.775-1.292-1.861-2.376-3.049-3.048c-1.291-0.723-2.738-1.188-4.34-1.188s-2.998,0.465-4.291,1.188  c-1.242,0.723-2.382,1.756-3.054,3.048c-0.776,1.447-1.189,2.842-1.189,4.288v3.204c0,2.479,1.086,4.701,2.741,6.303l-11.215,7.078  v7.438h23.001c1.654,2.273,4.237,3.771,7.336,3.771c5.012,0,9.041-4.029,9.041-8.988c0-5.012-4.08-9.042-9.041-9.042  c-1.703,0-3.357,0.517-4.752,1.395L47.984,42.638z M52.014,52.092v2.273c0.465,0.981,1.809,1.446,3.202,1.446  c1.396,0,2.688-0.465,3.101-1.446V52.04l-3.151,1.55L52.014,52.092z M55.165,48.011l-4.907,2.325l4.907,2.428l4.443-2.17v4.186  h0.517v-4.443L55.165,48.011z M48.811,45.789c-1.498,1.653-2.377,3.771-2.377,6.097c0,1.085,0.259,2.065,0.518,2.944H27.514  l-0.052-3.822l11.634-7.286l-0.052-2.014c-1.863-1.033-3.053-3.048-3.053-5.373v-3.203c0-1.137,0.258-2.222,0.828-3.151  c0.569-0.878,1.346-1.653,2.226-2.222c0.983-0.569,1.966-0.827,3.153-0.827c1.188,0,2.273,0.258,3.152,0.827  c0.878,0.568,1.652,1.343,2.221,2.222c0.672,1.033,0.878,2.169,0.878,3.151v3.203c0,2.324-1.239,4.34-3.099,5.425l-0.053,1.962  L48.811,45.789z"
     id="path4"
     style="fill:#ffffff;fill-opacity:1" /><g
     id="g18"><polygon
       fill="#676D72"
       points="108.842,20.487 108.842,18.695 108.014,18.695 107.6,20.074 108.151,20.765  "
       id="polygon6"
       style="fill:#ffffff;fill-opacity:1" /><polygon
       fill="#676D72"
       points="112.014,20.487 112.152,19.66 111.324,18.418 110.221,17.04 109.254,17.178 110.082,18.418    109.668,19.523 110.082,20.074 109.254,21.04  "
       id="polygon8"
       style="fill:#ffffff;fill-opacity:1" /><polygon
       fill="#676D72"
       points="122.637,34.835 117.256,32.213 116.842,29.593 108.979,30.007 106.082,32.213 100.84,38.973    100.703,43.25 106.082,50.146 113.254,48.904 116.428,50.699 116.428,53.732 118.498,58.285 118.082,63.113 121.67,70.562    127.463,69.322 130.498,66.424 130.223,64.355 133.81,59.113 133.81,54.561 139.879,46.146 136.982,46.009 133.12,42.698    130.223,34.559 123.602,32.903  "
       id="polygon10"
       style="fill:#ffffff;fill-opacity:1" /><polygon
       fill="#676D72"
       points="138.638,58.424 138.224,57.596 137.121,59.527 135.879,60.217 134.637,64.08 135.189,65.598    137.948,61.598  "
       id="polygon12"
       style="fill:#ffffff;fill-opacity:1" /><polygon
       fill="#676D72"
       points="102.909,15.384 102.909,14.556 101.254,14.556 100.703,15.384 101.531,15.522  "
       id="polygon14"
       style="fill:#ffffff;fill-opacity:1" /><path
       fill="#676D72"
       d="M219.502,31.199c-1.367-3.49-3.367-6.567-5.946-9.145c-2.616-2.614-5.759-4.646-9.344-6.039   c-3.696-1.437-7.796-2.166-12.186-2.166h-37.659l12.193-8.57l-1.317-1.875l-18.124,12.737h44.907   c16.304,0,27.256,10.639,27.256,26.474c0,15.835-10.952,26.474-27.256,26.474h-52.349c6.76-6.732,10.936-16.057,10.936-26.387   c0-20.478-16.607-37.086-37.214-37.086c-8.827,0-16.93,3.09-23.298,8.241H34.889c-4.392,0-8.491,0.729-12.188,2.166   c-3.584,1.393-6.728,3.425-9.343,6.039c-2.579,2.577-4.58,5.654-5.947,9.145c-1.375,3.512-2.072,7.353-2.072,11.417   c0,4.064,0.697,7.905,2.072,11.417c1.367,3.49,3.368,6.568,5.947,9.145c2.615,2.613,5.759,4.646,9.343,6.039   c3.697,1.436,7.797,2.166,12.188,2.166h37.668l-12.193,8.568l1.318,1.875l18.124-12.736H34.889   c-16.305,0-27.258-10.639-27.258-26.474S18.584,16.15,34.889,16.15h52.634c-6.912,6.737-11.211,16.142-11.211,26.553   c0,20.606,16.607,37.213,37.087,37.213c9.044,0,17.317-3.201,23.756-8.533h54.871c4.39,0,8.489-0.73,12.186-2.166   c3.585-1.393,6.728-3.426,9.344-6.039c2.579-2.578,4.579-5.654,5.946-9.145c1.375-3.512,2.073-7.354,2.073-11.417   S220.877,34.71,219.502,31.199z M113.395,77.598c-7.863,0-15.589-2.758-21.658-7.861l1.241-1.795l-0.688-1.518l1.241-4   l-0.553-1.379l-5.242-2.76l-2.069-3.586l-5.518-4h-0.552c-0.69-2.484-1.104-5.242-1.104-8.001c0-0.138,0-0.552,0.139-0.828   l1.379-4.966l3.725-6.483l-0.828-0.277l0.828-1.379l2.484-1.932v-4.415l-0.553-0.412c0.828-1.241,2.069-2.76,3.035-3.725   c1.104-1.104,2.068-1.931,3.174-2.759l0.414,1.931l1.517,0.551l1.378-0.414l8.414-8.138c3.174-0.966,6.484-1.517,9.795-1.517   c6.209,0,12.277,1.792,17.52,4.828l-1.104,0.826l-1.654-2.068l-6.484-0.552l-3.311,1.793l-3.448,1.24v2.346l2.207-0.414   l1.241,2.482l0.966-0.828l0.69-2.62l0.551-0.276l0.828,1.656h2.207l-1.932,0.689l-0.275,1.379l-1.793,1.104l-1.655-0.277   l-1.104-1.792l-0.689,2.069l-2.07,0.828l-3.861,1.103l0.553,1.656l-0.691,1.379l-4,0.691v3.724l2.344,0.69l1.795-0.414l0.967-2.347   l1.379-1.517l1.516,0.277l2.346-0.828l2.483,1.792l-0.138,1.793l2.207-0.828l-0.828-1.104l-1.654-1.517l-0.139-1.241l3.311,2.069   l1.242,2.345l1.104,1.655l1.379-0.414l-1.241-0.965v-0.828h1.655l1.242-0.691l1.104-3.31l2.344,0.965l0.414-1.378l1.38,0.414   l-0.966,1.242l2.208,0.828l0.275,1.24l-3.726-0.414l-2.344,0.828l-0.689,1.104l0.826,2.207h3.449v3.172l-1.104,0.829l6.76,10.483   l3.863-2.069l2.619-2.759l-1.241-1.931l-2.345-0.827l-1.104-2.069l8.967,5.656l0.551,1.103v0.552   c0.001,9.242-3.586,18.072-10.345,24.555C131.465,74.012,122.637,77.598,113.395,77.598z"
       id="path16"
       style="fill:#ffffff;fill-opacity:1" /></g></svg>